<svg width="144" height="25" viewBox="0 0 144 25" fill="none" xmlns="http://www.w3.org/2000/svg">
<path d="M9.568 24.352C7.456 24.352 5.86667 23.8293 4.8 22.784C3.73333 21.7173 3.2 20.128 3.2 18.016V11.392H0.128V7.776H3.2V3.808L8.032 2.624V7.776H12.192V11.392H8.032V17.76C8.032 18.784 8.24533 19.488 8.672 19.872C9.09867 20.256 9.64267 20.448 10.304 20.448C10.7093 20.448 11.04 20.4267 11.296 20.384C11.5733 20.32 11.8613 20.2347 12.16 20.128V23.872C11.7547 24.0427 11.328 24.16 10.88 24.224C10.432 24.3093 9.99467 24.352 9.568 24.352ZM14.6395 24V12.064C14.6395 11.36 14.6182 10.6453 14.5755 9.92C14.5542 9.19467 14.5008 8.48 14.4155 7.776H19.0555L19.5995 12.512H18.8635C19.0768 11.36 19.4182 10.4107 19.8875 9.664C20.3782 8.91733 20.9755 8.36267 21.6795 8C22.4048 7.63733 23.2262 7.456 24.1435 7.456C24.5488 7.456 24.8688 7.47733 25.1035 7.52C25.3382 7.54133 25.5728 7.59467 25.8075 7.68L25.7755 11.936C25.3275 11.744 24.9435 11.6267 24.6235 11.584C24.3248 11.52 23.9408 11.488 23.4715 11.488C22.5755 11.488 21.8288 11.6587 21.2315 12C20.6555 12.3413 20.2182 12.8427 19.9195 13.504C19.6422 14.1653 19.5035 14.9653 19.5035 15.904V24H14.6395ZM35.7065 24.352C32.8905 24.352 30.6932 23.5947 29.1145 22.08C27.5358 20.5653 26.7465 18.5067 26.7465 15.904C26.7465 14.2187 27.0772 12.7467 27.7385 11.488C28.4212 10.2293 29.3598 9.248 30.5545 8.544C31.7705 7.81867 33.1892 7.456 34.8105 7.456C36.4105 7.456 37.7438 7.79733 38.8105 8.48C39.8985 9.16267 40.7092 10.1227 41.2425 11.36C41.7972 12.576 42.0745 13.9947 42.0745 15.616V16.736H30.7145V14.336H38.5545L38.0105 14.784C38.0105 13.44 37.7332 12.4267 37.1785 11.744C36.6452 11.04 35.8665 10.688 34.8425 10.688C33.7118 10.688 32.8372 11.104 32.2185 11.936C31.6212 12.768 31.3225 13.9627 31.3225 15.52V16.032C31.3225 17.6107 31.7065 18.784 32.4745 19.552C33.2638 20.32 34.3945 20.704 35.8665 20.704C36.7412 20.704 37.5625 20.5973 38.3305 20.384C39.1198 20.1493 39.8665 19.7867 40.5705 19.296L41.9145 22.496C41.1038 23.0933 40.1652 23.552 39.0985 23.872C38.0532 24.192 36.9225 24.352 35.7065 24.352ZM45.1403 24V7.776H49.9723V24H45.1403ZM44.9483 5.12V0.608H50.1323V5.12H44.9483ZM53.9215 24V12C53.9215 11.3173 53.9002 10.624 53.8575 9.92C53.8148 9.19467 53.7508 8.48 53.6655 7.776H58.3055L58.6575 10.784H58.2735C58.8068 9.71733 59.5642 8.896 60.5455 8.32C61.5268 7.744 62.6682 7.456 63.9695 7.456C65.8682 7.456 67.2868 8.01067 68.2255 9.12C69.1855 10.208 69.6655 11.904 69.6655 14.208V24H64.8335V14.432C64.8335 13.2587 64.6202 12.4267 64.1935 11.936C63.7668 11.4453 63.1268 11.2 62.2735 11.2C61.2068 11.2 60.3535 11.5413 59.7135 12.224C59.0735 12.8853 58.7535 13.7813 58.7535 14.912V24H53.9215ZM81.7065 24.352C78.8905 24.352 76.6932 23.5947 75.1145 22.08C73.5358 20.5653 72.7465 18.5067 72.7465 15.904C72.7465 14.2187 73.0772 12.7467 73.7385 11.488C74.4212 10.2293 75.3598 9.248 76.5545 8.544C77.7705 7.81867 79.1892 7.456 80.8105 7.456C82.4105 7.456 83.7438 7.79733 84.8105 8.48C85.8985 9.16267 86.7092 10.1227 87.2425 11.36C87.7972 12.576 88.0745 13.9947 88.0745 15.616V16.736H76.7145V14.336H84.5545L84.0105 14.784C84.0105 13.44 83.7332 12.4267 83.1785 11.744C82.6452 11.04 81.8665 10.688 80.8425 10.688C79.7118 10.688 78.8372 11.104 78.2185 11.936C77.6212 12.768 77.3225 13.9627 77.3225 15.52V16.032C77.3225 17.6107 77.7065 18.784 78.4745 19.552C79.2638 20.32 80.3945 20.704 81.8665 20.704C82.7412 20.704 83.5625 20.5973 84.3305 20.384C85.1198 20.1493 85.8665 19.7867 86.5705 19.296L87.9145 22.496C87.1038 23.0933 86.1652 23.552 85.0985 23.872C84.0532 24.192 82.9225 24.352 81.7065 24.352ZM90.7243 24V18.88H95.9083V24H90.7243ZM99.4528 24V12C99.4528 11.3173 99.4314 10.624 99.3888 9.92C99.3461 9.19467 99.2821 8.48 99.1968 7.776H103.837L104.189 10.784H103.805C104.274 9.76 104.967 8.94933 105.885 8.352C106.802 7.75467 107.89 7.456 109.149 7.456C110.386 7.456 111.421 7.75467 112.253 8.352C113.106 8.928 113.714 9.83467 114.077 11.072H113.565C114.034 9.96267 114.781 9.088 115.805 8.448C116.829 7.78667 117.991 7.456 119.293 7.456C121.127 7.456 122.493 8 123.389 9.088C124.285 10.176 124.733 11.8827 124.733 14.208V24H119.901V14.368C119.901 13.2373 119.719 12.4267 119.357 11.936C118.994 11.4453 118.407 11.2 117.597 11.2C116.637 11.2 115.879 11.5413 115.325 12.224C114.77 12.9067 114.493 13.8453 114.493 15.04V24H109.661V14.368C109.661 13.2373 109.479 12.4267 109.117 11.936C108.754 11.4453 108.167 11.2 107.357 11.2C106.397 11.2 105.639 11.5413 105.085 12.224C104.551 12.9067 104.285 13.8453 104.285 15.04V24H99.4528ZM136.769 24.352C133.953 24.352 131.756 23.5947 130.177 22.08C128.598 20.5653 127.809 18.5067 127.809 15.904C127.809 14.2187 128.14 12.7467 128.801 11.488C129.484 10.2293 130.422 9.248 131.617 8.544C132.833 7.81867 134.252 7.456 135.873 7.456C137.473 7.456 138.806 7.79733 139.873 8.48C140.961 9.16267 141.772 10.1227 142.305 11.36C142.86 12.576 143.137 13.9947 143.137 15.616V16.736H131.777V14.336H139.617L139.073 14.784C139.073 13.44 138.796 12.4267 138.241 11.744C137.708 11.04 136.929 10.688 135.905 10.688C134.774 10.688 133.9 11.104 133.281 11.936C132.684 12.768 132.385 13.9627 132.385 15.52V16.032C132.385 17.6107 132.769 18.784 133.537 19.552C134.326 20.32 135.457 20.704 136.929 20.704C137.804 20.704 138.625 20.5973 139.393 20.384C140.182 20.1493 140.929 19.7867 141.633 19.296L142.977 22.496C142.166 23.0933 141.228 23.552 140.161 23.872C139.116 24.192 137.985 24.352 136.769 24.352Z" fill="#89C5CC"/>
</svg>
